<svg width="20" height="21" viewBox="0 0 20 21" fill="none" xmlns="http://www.w3.org/2000/svg">
<path d="M10 4.905V6.405C8.645 6.405 7.303 6.461 5.976 6.571C4.845 6.665 4 7.628 4 8.763V11.276M10 6.406C11.355 6.406 12.697 6.461 14.024 6.571C15.155 6.665 16 7.628 16 8.763V11.276M13 6.406V4.906M7 6.406V4.906M19 14.656L17.5 15.406C17.0343 15.6389 16.5207 15.7601 16 15.7601C15.4793 15.7601 14.9657 15.6389 14.5 15.406C14.0343 15.1731 13.5207 15.0519 13 15.0519C12.4793 15.0519 11.9657 15.1731 11.5 15.406C11.0343 15.6389 10.5207 15.7601 10 15.7601C9.47929 15.7601 8.96573 15.6389 8.5 15.406C8.03427 15.1731 7.52071 15.0519 7 15.0519C6.47929 15.0519 5.96573 15.1731 5.5 15.406C5.03427 15.6389 4.52071 15.7601 4 15.7601C3.47929 15.7601 2.96573 15.6389 2.5 15.406L1 14.655M16 11.275C14.0096 11.0277 12.0057 10.9041 10 10.905C7.968 10.905 5.966 11.03 4 11.275C3.61169 11.3239 3.22399 11.3776 2.837 11.436C1.768 11.596 1 12.53 1 13.61V18.78C1.00027 19.0782 1.11891 19.3641 1.32986 19.5749C1.54081 19.7856 1.8268 19.904 2.125 19.904H17.875C18.496 19.904 19 19.4 19 18.78V13.61C19 12.529 18.233 11.595 17.163 11.435C16.777 11.377 16.39 11.324 16 11.275ZM10.265 1.265C10.3175 1.31743 10.3533 1.38424 10.3678 1.457C10.3823 1.52976 10.3749 1.60518 10.3465 1.67373C10.3181 1.74228 10.2701 1.80087 10.2084 1.8421C10.1467 1.88332 10.0742 1.90533 10 1.90533C9.92581 1.90533 9.85329 1.88332 9.79161 1.8421C9.72993 1.80087 9.68187 1.74228 9.6535 1.67373C9.62513 1.60518 9.61773 1.52976 9.63224 1.457C9.64675 1.38424 9.68251 1.31743 9.735 1.265L10 1L10.265 1.265ZM7.265 1.265C7.31749 1.31743 7.35325 1.38424 7.36776 1.457C7.38227 1.52976 7.37487 1.60518 7.3465 1.67373C7.31813 1.74228 7.27007 1.80087 7.20839 1.8421C7.14671 1.88332 7.07419 1.90533 7 1.90533C6.92581 1.90533 6.85329 1.88332 6.79161 1.8421C6.72993 1.80087 6.68187 1.74228 6.6535 1.67373C6.62513 1.60518 6.61773 1.52976 6.63224 1.457C6.64675 1.38424 6.68251 1.31743 6.735 1.265L7 1L7.265 1.265ZM13.265 1.265C13.3175 1.31743 13.3533 1.38424 13.3678 1.457C13.3823 1.52976 13.3749 1.60518 13.3465 1.67373C13.3181 1.74228 13.2701 1.80087 13.2084 1.8421C13.1467 1.88332 13.0742 1.90533 13 1.90533C12.9258 1.90533 12.8533 1.88332 12.7916 1.8421C12.7299 1.80087 12.6819 1.74228 12.6535 1.67373C12.6251 1.60518 12.6177 1.52976 12.6322 1.457C12.6467 1.38424 12.6825 1.31743 12.735 1.265L13 1L13.265 1.265Z" stroke="black" stroke-width="1.5" stroke-linecap="round" stroke-linejoin="round"/>
</svg>
