<svg width="22" height="18" viewBox="0 0 22 18" fill="none" xmlns="http://www.w3.org/2000/svg">
<path d="M1.25 12C1.25 13.1935 1.72411 14.3381 2.56802 15.182C3.41193 16.0259 4.55653 16.5 5.75 16.5H17C17.8778 16.501 18.7282 16.194 19.4029 15.6324C20.0776 15.0709 20.534 14.2904 20.6924 13.427C20.8509 12.5636 20.7015 11.672 20.2701 10.9075C19.8388 10.1429 19.1529 9.5539 18.332 9.24304C18.5176 8.71528 18.5519 8.14614 18.431 7.59991C18.3102 7.05368 18.039 6.55212 17.6481 6.15189C17.2572 5.75165 16.7622 5.46868 16.219 5.33494C15.6758 5.2012 15.106 5.22202 14.574 5.39505C14.2299 4.07507 13.3856 2.94084 12.2198 2.23256C11.054 1.52428 9.65826 1.29755 8.32821 1.6004C6.99817 1.90324 5.83821 2.71188 5.09398 3.85506C4.34976 4.99825 4.0797 6.38621 4.341 7.72505C3.44158 8.02189 2.65869 8.59485 2.10374 9.36237C1.54879 10.1299 1.25004 11.0529 1.25 12Z" stroke="black" stroke-width="1.5" stroke-linecap="round" stroke-linejoin="round"/>
</svg>
