<svg width="20" height="20" viewBox="0 0 20 20" fill="none" xmlns="http://www.w3.org/2000/svg">
<path d="M18.8931 11.3931L17.7581 10.2581C17.5872 10.0869 17.4451 9.88939 17.3371 9.67305L16.2571 7.51305C16.2277 7.45443 16.1848 7.40363 16.1319 7.36483C16.079 7.32603 16.0177 7.30035 15.9529 7.28991C15.8882 7.27946 15.8219 7.28454 15.7595 7.30473C15.6971 7.32492 15.6404 7.35965 15.5941 7.40605C15.4897 7.51027 15.3594 7.5847 15.2166 7.62162C15.0739 7.65855 14.9238 7.65662 14.7821 7.61605L13.5091 7.25305C13.3054 7.19579 13.088 7.21296 12.8958 7.30149C12.7036 7.39001 12.5493 7.54409 12.4605 7.73611C12.3716 7.92812 12.3541 8.1455 12.411 8.34927C12.4679 8.55304 12.5956 8.72987 12.7711 8.84805L13.3581 9.23805C13.9481 9.63305 14.0321 10.4681 13.5301 10.9701L13.3301 11.1701C13.1181 11.3821 13.0001 11.6681 13.0001 11.9661V12.3761C13.0001 12.7851 12.8901 13.1851 12.6801 13.5341L11.3651 15.7251C11.1776 16.0377 10.9123 16.2965 10.5951 16.4761C10.2779 16.6557 9.91959 16.7501 9.55505 16.7501C9.27525 16.7501 9.0069 16.6389 8.80905 16.441C8.6112 16.2432 8.50005 15.9749 8.50005 15.6951V14.5231C8.50005 13.6031 7.94005 12.7761 7.08605 12.4341L6.43105 12.1731C5.95449 11.9823 5.55749 11.6343 5.30593 11.1868C5.05437 10.7394 4.96338 10.2193 5.04805 9.71305L5.05505 9.67105C5.10154 9.39286 5.19991 9.12589 5.34505 8.88405L5.43505 8.73405C5.67387 8.33636 6.02977 8.02221 6.45403 7.8346C6.87829 7.647 7.35017 7.59511 7.80505 7.68605L8.98305 7.92205C9.26026 7.97734 9.54813 7.92625 9.78938 7.77894C10.0306 7.63164 10.2076 7.3989 10.2851 7.12705L10.4931 6.39705C10.5651 6.14486 10.5468 5.87541 10.4412 5.6353C10.3357 5.39518 10.1496 5.19949 9.91505 5.08205L9.25005 4.75005L9.15905 4.84105C8.95012 5.04998 8.70208 5.21571 8.42909 5.32879C8.15611 5.44186 7.86353 5.50005 7.56805 5.50005H7.38805C7.13905 5.50005 6.90105 5.60005 6.72605 5.77405C6.56567 5.93589 6.35151 6.03329 6.12412 6.04782C5.89674 6.06234 5.67193 5.99298 5.49225 5.85286C5.31258 5.71275 5.19053 5.51161 5.14921 5.28754C5.10789 5.06348 5.15017 4.83203 5.26805 4.63705L6.67905 2.28405C6.81969 2.05016 6.9166 1.79263 6.96505 1.52405M18.8931 11.3931C19.1353 9.85019 18.9718 8.27085 18.4188 6.81028C17.8658 5.34971 16.9422 4.05818 15.7389 3.06266C14.5355 2.06714 13.0938 1.40189 11.5555 1.1323C10.0172 0.862706 8.43521 0.99806 6.96505 1.52505C5.46937 2.06119 4.14228 2.98372 3.11865 4.19891C2.09502 5.41409 1.41133 6.87861 1.13706 8.44362C0.862789 10.0086 1.00772 11.6184 1.55712 13.1092C2.10652 14.6001 3.04081 15.9189 4.26504 16.9317C5.48926 17.9445 6.95979 18.6152 8.52718 18.8755C10.0946 19.1359 11.703 18.9767 13.1889 18.4141C14.6748 17.8514 15.9853 16.9055 16.9872 15.6723C17.9891 14.4391 18.6466 12.9627 18.8931 11.3931Z" stroke="black" stroke-width="1.5" stroke-linecap="round" stroke-linejoin="round"/>
</svg>
