<svg width="149" height="45" viewBox="0 0 149 45" fill="none" xmlns="http://www.w3.org/2000/svg">
<rect x="144" y="10.4719" width="5" height="34" fill="#F4CC3C"/>
<path d="M0.064 1.576H3.984V2.68H2.96L4.608 7.064L5.456 9.576L6.208 7.192L7.792 2.68H6.768V1.576H10.496V2.68H8.992L6.16 11H4.72L1.584 2.68H0.064V1.576ZM10.1779 4.136H12.7699V10.008H14.0979V11H10.1779V10.008H11.5059V5.128H10.1779V4.136ZM11.9699 0.728C12.2685 0.728 12.5085 0.818666 12.6899 1C12.8712 1.18133 12.9619 1.42133 12.9619 1.72C12.9619 2.01867 12.8712 2.25867 12.6899 2.44C12.5085 2.62133 12.2685 2.712 11.9699 2.712C11.6712 2.712 11.4312 2.62133 11.2499 2.44C11.0792 2.25867 10.9939 2.01867 10.9939 1.72C10.9939 1.42133 11.0792 1.18133 11.2499 1C11.4312 0.818666 11.6712 0.728 11.9699 0.728ZM19.1813 5.144C18.9466 5.048 18.7226 4.97333 18.5092 4.92C18.2959 4.86667 18.0186 4.84 17.6772 4.84C17.2719 4.84 16.9039 4.93067 16.5732 5.112C16.2532 5.29333 16.0932 5.54933 16.0932 5.88C16.0932 6.2 16.2266 6.45067 16.4932 6.632C16.7706 6.80267 17.1546 6.91467 17.6452 6.968L18.3012 7.032C19.1759 7.11733 19.7892 7.336 20.1413 7.688C20.4933 8.02933 20.6693 8.48267 20.6693 9.048C20.6693 9.48533 20.5466 9.86933 20.3012 10.2C20.0666 10.5307 19.7306 10.7867 19.2933 10.968C18.8666 11.1493 18.3652 11.24 17.7892 11.24C17.2666 11.24 16.7546 11.1707 16.2532 11.032C15.7626 10.8933 15.3359 10.7227 14.9732 10.52L14.7012 8.904L15.8052 8.632L16.0452 9.752C16.2906 9.89067 16.5572 9.99733 16.8452 10.072C17.1439 10.1467 17.4426 10.184 17.7412 10.184C18.2106 10.184 18.6212 10.0933 18.9732 9.912C19.3359 9.72 19.5173 9.44267 19.5173 9.08C19.5173 8.76 19.4106 8.536 19.1972 8.408C18.9839 8.26933 18.6106 8.168 18.0772 8.104L17.3732 8.024C16.5839 7.93867 15.9812 7.70933 15.5652 7.336C15.1492 6.96267 14.9412 6.504 14.9412 5.96C14.9412 5.49067 15.0746 5.10133 15.3412 4.792C15.6079 4.48267 15.9492 4.25333 16.3652 4.104C16.7919 3.95467 17.2346 3.88 17.6932 3.88C18.1946 3.88 18.6426 3.928 19.0373 4.024C19.4319 4.12 19.8106 4.25867 20.1732 4.44L20.4612 5.96L19.4532 6.184L19.1813 5.144ZM27.9524 10.536C27.611 10.7493 27.227 10.92 26.8004 11.048C26.3737 11.176 25.9737 11.24 25.6004 11.24C24.619 11.24 23.8937 11.0213 23.4244 10.584C22.9657 10.1467 22.7364 9.464 22.7364 8.536V5.128H21.3924V4.136H23.9844V8.28C23.9844 8.96267 24.1177 9.45867 24.3844 9.768C24.6617 10.0667 25.0937 10.216 25.6804 10.216C26.0217 10.216 26.3844 10.168 26.7684 10.072C27.1524 9.96533 27.4617 9.832 27.6964 9.672V5.128H26.3524V4.136H28.9444V9.752L30.4484 10.264L30.1284 11.288L27.9524 10.536ZM35.8352 10.536C35.1419 11.0053 34.3899 11.24 33.5792 11.24C32.6832 11.24 32.0006 11.0587 31.5312 10.696C31.0726 10.3333 30.8379 9.80533 30.8272 9.112C30.8059 7.71467 31.6912 7.016 33.4832 7.016L35.5472 7.032C35.5472 6.31733 35.4139 5.78933 35.1472 5.448C34.8806 5.096 34.4752 4.92 33.9312 4.92C33.6752 4.92 33.4246 4.936 33.1792 4.968C32.9339 5 32.7046 5.048 32.4912 5.112L32.3312 5.992L31.3072 5.8L31.5632 4.344C31.9686 4.19467 32.3632 4.08267 32.7472 4.008C33.1419 3.93333 33.5206 3.896 33.8832 3.896C34.8432 3.896 35.5686 4.15733 36.0592 4.68C36.5499 5.192 36.7952 5.95467 36.7952 6.968V9.752L38.3152 10.248L37.9952 11.272L35.8352 10.536ZM33.5312 8.024C33.0726 8.024 32.7206 8.11467 32.4752 8.296C32.2299 8.47733 32.1072 8.744 32.1072 9.096C32.1072 9.84267 32.6192 10.216 33.6432 10.216C34.3792 10.216 35.0139 10.0133 35.5472 9.608V8.04L33.5312 8.024ZM38.7055 11V10.008H40.0495V1.944L38.4495 1.592L38.7215 0.568L41.2975 1.16V10.008H42.6415V11H38.7055ZM43.2654 4.136H45.8574V10.008H47.1854V11H43.2654V10.008H44.5934V5.128H43.2654V4.136ZM45.0574 0.728C45.356 0.728 45.596 0.818666 45.7774 1C45.9587 1.18133 46.0494 1.42133 46.0494 1.72C46.0494 2.01867 45.9587 2.25867 45.7774 2.44C45.596 2.62133 45.356 2.712 45.0574 2.712C44.7587 2.712 44.5187 2.62133 44.3374 2.44C44.1667 2.25867 44.0814 2.01867 44.0814 1.72C44.0814 1.42133 44.1667 1.18133 44.3374 1C44.5187 0.818666 44.7587 0.728 45.0574 0.728ZM52.2687 5.144C52.0341 5.048 51.8101 4.97333 51.5967 4.92C51.3834 4.86667 51.1061 4.84 50.7647 4.84C50.3594 4.84 49.9914 4.93067 49.6607 5.112C49.3407 5.29333 49.1807 5.54933 49.1807 5.88C49.1807 6.2 49.3141 6.45067 49.5807 6.632C49.8581 6.80267 50.2421 6.91467 50.7327 6.968L51.3887 7.032C52.2634 7.11733 52.8767 7.336 53.2287 7.688C53.5807 8.02933 53.7567 8.48267 53.7567 9.048C53.7567 9.48533 53.6341 9.86933 53.3887 10.2C53.1541 10.5307 52.8181 10.7867 52.3807 10.968C51.9541 11.1493 51.4527 11.24 50.8767 11.24C50.3541 11.24 49.8421 11.1707 49.3407 11.032C48.8501 10.8933 48.4234 10.7227 48.0607 10.52L47.7887 8.904L48.8927 8.632L49.1327 9.752C49.3781 9.89067 49.6447 9.99733 49.9327 10.072C50.2314 10.1467 50.5301 10.184 50.8287 10.184C51.2981 10.184 51.7087 10.0933 52.0607 9.912C52.4234 9.72 52.6047 9.44267 52.6047 9.08C52.6047 8.76 52.4981 8.536 52.2847 8.408C52.0714 8.26933 51.6981 8.168 51.1647 8.104L50.4607 8.024C49.6714 7.93867 49.0687 7.70933 48.6527 7.336C48.2367 6.96267 48.0287 6.504 48.0287 5.96C48.0287 5.49067 48.1621 5.10133 48.4287 4.792C48.6954 4.48267 49.0367 4.25333 49.4527 4.104C49.8794 3.95467 50.3221 3.88 50.7807 3.88C51.2821 3.88 51.7301 3.928 52.1247 4.024C52.5194 4.12 52.8981 4.25867 53.2607 4.44L53.5487 5.96L52.5407 6.184L52.2687 5.144ZM59.6959 10.536C59.0025 11.0053 58.2505 11.24 57.4399 11.24C56.5439 11.24 55.8612 11.0587 55.3919 10.696C54.9332 10.3333 54.6985 9.80533 54.6879 9.112C54.6665 7.71467 55.5519 7.016 57.3439 7.016L59.4079 7.032C59.4079 6.31733 59.2745 5.78933 59.0079 5.448C58.7412 5.096 58.3359 4.92 57.7919 4.92C57.5359 4.92 57.2852 4.936 57.0399 4.968C56.7945 5 56.5652 5.048 56.3519 5.112L56.1919 5.992L55.1679 5.8L55.4239 4.344C55.8292 4.19467 56.2239 4.08267 56.6079 4.008C57.0025 3.93333 57.3812 3.896 57.7439 3.896C58.7039 3.896 59.4292 4.15733 59.9199 4.68C60.4105 5.192 60.6559 5.95467 60.6559 6.968V9.752L62.1759 10.248L61.8559 11.272L59.6959 10.536ZM57.3919 8.024C56.9332 8.024 56.5812 8.11467 56.3359 8.296C56.0905 8.47733 55.9679 8.744 55.9679 9.096C55.9679 9.84267 56.4799 10.216 57.5039 10.216C58.2399 10.216 58.8745 10.0133 59.4079 9.608V8.04L57.3919 8.024ZM65.8376 11.24C65.4536 11.24 65.0856 11.1653 64.7336 11.016C64.3923 10.8667 64.115 10.6 63.9016 10.216C63.6883 9.832 63.5816 9.29867 63.5816 8.616V5.128H62.2536V4.136H63.5816V2.584L64.7976 2.296V4.136H66.7976V5.128H64.7976V7.912C64.7976 8.62667 64.867 9.20267 65.0056 9.64C65.1443 10.0773 65.4483 10.296 65.9176 10.296C66.2483 10.296 66.6216 10.2 67.0376 10.008L67.2776 10.904C67.0536 10.9893 66.819 11.064 66.5736 11.128C66.3283 11.2027 66.083 11.24 65.8376 11.24ZM67.9541 4.136H70.5461V10.008H71.8741V11H67.9541V10.008H69.2821V5.128H67.9541V4.136ZM69.7461 0.728C70.0448 0.728 70.2848 0.818666 70.4661 1C70.6475 1.18133 70.7381 1.42133 70.7381 1.72C70.7381 2.01867 70.6475 2.25867 70.4661 2.44C70.2848 2.62133 70.0448 2.712 69.7461 2.712C69.4475 2.712 69.2075 2.62133 69.0261 2.44C68.8555 2.25867 68.7701 2.01867 68.7701 1.72C68.7701 1.42133 68.8555 1.18133 69.0261 1C69.2075 0.818666 69.4475 0.728 69.7461 0.728ZM76.0615 3.896C76.7762 3.896 77.3948 4.04533 77.9175 4.344C78.4508 4.632 78.8668 5.05333 79.1655 5.608C79.4642 6.152 79.6135 6.808 79.6135 7.576C79.6135 8.71733 79.2882 9.61333 78.6375 10.264C77.9868 10.9147 77.1282 11.24 76.0615 11.24C75.3788 11.24 74.7708 11.096 74.2375 10.808C73.7148 10.5093 73.3042 10.088 73.0055 9.544C72.7175 8.98933 72.5735 8.33333 72.5735 7.576C72.5735 6.808 72.7175 6.152 73.0055 5.608C73.3042 5.05333 73.7148 4.632 74.2375 4.344C74.7708 4.04533 75.3788 3.896 76.0615 3.896ZM76.0775 4.92C75.3415 4.92 74.7868 5.15467 74.4135 5.624C74.0402 6.08267 73.8535 6.73333 73.8535 7.576C73.8535 8.41867 74.0402 9.06933 74.4135 9.528C74.7868 9.98667 75.3415 10.216 76.0775 10.216C76.8348 10.216 77.4002 9.98667 77.7735 9.528C78.1468 9.06933 78.3335 8.41867 78.3335 7.576C78.3335 6.73333 78.1468 6.08267 77.7735 5.624C77.4002 5.15467 76.8348 4.92 76.0775 4.92ZM80.3008 11V10.008H81.6448V5.416L80.1088 4.888L80.4448 3.896L82.5728 4.632C82.9461 4.38667 83.3408 4.20533 83.7568 4.088C84.1834 3.96 84.5994 3.896 85.0048 3.896C85.5168 3.896 85.9861 3.99733 86.4128 4.2C86.8501 4.392 87.1968 4.69067 87.4528 5.096C87.7194 5.49067 87.8528 5.992 87.8528 6.6V10.008H89.1968V11H85.8848V10.008H86.6048V6.856C86.6048 6.17333 86.4288 5.68267 86.0768 5.384C85.7354 5.07467 85.3088 4.92 84.7968 4.92C84.4981 4.92 84.1834 4.968 83.8528 5.064C83.5328 5.14933 83.2128 5.28267 82.8928 5.464V10.008H83.6128V11H80.3008Z" fill="black"/>
<path d="M0.15 36V32.64H3.12L7.5 21.69H5.16V18.33H12.36L17.91 32.64H20.55V36H12.6V32.64H14.07L13.17 30.09H7.38L6.48 32.64H8.13V36H0.15ZM8.28 27.63H12.33L10.32 21.9L8.28 27.63ZM30.5229 24.93C30.2029 24.83 29.8929 24.76 29.5929 24.72C29.2929 24.68 29.0129 24.66 28.7529 24.66C27.5729 24.66 26.6729 25.06 26.0529 25.86C25.4529 26.64 25.1529 27.8 25.1529 29.34C25.1529 30.64 25.4829 31.67 26.1429 32.43C26.8029 33.19 27.6229 33.57 28.6029 33.57C29.2829 33.57 29.9829 33.44 30.7029 33.18C31.4229 32.9 32.1329 32.51 32.8329 32.01L34.3629 34.26C33.7429 34.74 33.1329 35.16 32.5329 35.52C31.9329 35.86 31.3129 36.12 30.6729 36.3C30.0529 36.5 29.3529 36.6 28.5729 36.6C27.0729 36.6 25.7729 36.33 24.6729 35.79C23.5929 35.23 22.7529 34.41 22.1529 33.33C21.5729 32.25 21.2829 30.92 21.2829 29.34C21.2829 27.68 21.5629 26.29 22.1229 25.17C22.6829 24.03 23.5129 23.18 24.6129 22.62C25.7129 22.04 27.0729 21.75 28.6929 21.75C29.4729 21.75 30.2529 21.83 31.0329 21.99C31.8329 22.13 32.6029 22.34 33.3429 22.62L34.1829 26.73L30.9729 27.42L30.5229 24.93ZM45.128 24.93C44.808 24.83 44.498 24.76 44.198 24.72C43.898 24.68 43.618 24.66 43.358 24.66C42.178 24.66 41.278 25.06 40.658 25.86C40.058 26.64 39.758 27.8 39.758 29.34C39.758 30.64 40.088 31.67 40.748 32.43C41.408 33.19 42.228 33.57 43.208 33.57C43.888 33.57 44.588 33.44 45.308 33.18C46.028 32.9 46.738 32.51 47.438 32.01L48.968 34.26C48.348 34.74 47.738 35.16 47.138 35.52C46.538 35.86 45.918 36.12 45.278 36.3C44.658 36.5 43.958 36.6 43.178 36.6C41.678 36.6 40.378 36.33 39.278 35.79C38.198 35.23 37.358 34.41 36.758 33.33C36.178 32.25 35.888 30.92 35.888 29.34C35.888 27.68 36.168 26.29 36.728 25.17C37.288 24.03 38.118 23.18 39.218 22.62C40.318 22.04 41.678 21.75 43.298 21.75C44.078 21.75 44.858 21.83 45.638 21.99C46.438 22.13 47.208 22.34 47.948 22.62L48.788 26.73L45.578 27.42L45.128 24.93ZM50.583 22.38H56.883V32.97H59.373V36H50.583V32.97H53.073V25.41H50.583V22.38ZM54.663 15.84C55.303 15.84 55.823 16.04 56.223 16.44C56.623 16.84 56.823 17.36 56.823 18C56.823 18.64 56.623 19.16 56.223 19.56C55.823 19.94 55.303 20.13 54.663 20.13C54.023 20.13 53.503 19.94 53.103 19.56C52.723 19.16 52.533 18.64 52.533 18C52.533 17.36 52.723 16.84 53.103 16.44C53.503 16.04 54.023 15.84 54.663 15.84ZM75.7936 36.78L72.0136 35.49C70.8936 36.23 69.5536 36.6 67.9936 36.6C65.6936 36.6 63.9036 35.95 62.6236 34.65C61.3436 33.33 60.7036 31.49 60.7036 29.13C60.7036 26.81 61.3436 25.01 62.6236 23.73C63.9036 22.43 65.6936 21.78 67.9936 21.78C68.3736 21.78 68.7836 21.82 69.2236 21.9C69.6836 21.98 70.1336 22.09 70.5736 22.23V19.89L67.5736 18.84L68.6536 15.6L74.3836 17.55V32.67L76.8436 33.51L75.7936 36.78ZM68.0236 33.57C68.4236 33.57 68.8536 33.52 69.3136 33.42C69.7936 33.3 70.2136 33.14 70.5736 32.94V25.41C70.2536 25.25 69.8536 25.12 69.3736 25.02C68.9136 24.92 68.4636 24.87 68.0236 24.87C66.9836 24.87 66.1436 25.26 65.5036 26.04C64.8836 26.82 64.5736 27.85 64.5736 29.13C64.5736 30.47 64.8836 31.55 65.5036 32.37C66.1436 33.17 66.9836 33.57 68.0236 33.57ZM91.354 34.32C90.434 35.1 89.474 35.67 88.474 36.03C87.494 36.41 86.524 36.6 85.564 36.6C84.004 36.6 82.644 36.29 81.484 35.67C80.324 35.03 79.424 34.16 78.784 33.06C78.164 31.94 77.854 30.67 77.854 29.25C77.854 27.75 78.154 26.44 78.754 25.32C79.354 24.2 80.184 23.33 81.244 22.71C82.304 22.09 83.534 21.78 84.934 21.78C86.394 21.78 87.654 22.07 88.714 22.65C89.794 23.23 90.624 24.04 91.204 25.08C91.804 26.1 92.104 27.31 92.104 28.71C92.104 28.97 92.084 29.27 92.044 29.61C92.024 29.95 91.984 30.27 91.924 30.57H81.484C81.564 31.25 81.794 31.82 82.174 32.28C82.554 32.74 83.034 33.08 83.614 33.3C84.214 33.52 84.864 33.63 85.564 33.63C86.404 33.63 87.214 33.49 87.994 33.21C88.774 32.93 89.484 32.54 90.124 32.04L91.354 34.32ZM88.324 28.05C88.324 27.11 88.034 26.35 87.454 25.77C86.874 25.17 86.074 24.87 85.054 24.87C84.134 24.87 83.334 25.17 82.654 25.77C81.974 26.35 81.614 27.11 81.574 28.05H88.324ZM93.5808 36V32.97H96.1308V26.16L93.2508 25.17L94.2408 22.11L98.4708 23.55C99.2708 23.01 100.071 22.58 100.871 22.26C101.671 21.94 102.691 21.78 103.931 21.78C105.251 21.78 106.291 22.04 107.051 22.56C107.811 23.08 108.351 23.78 108.671 24.66C109.011 25.54 109.181 26.51 109.181 27.57V32.97H111.671V36H104.171V32.97H105.401V28.02C105.401 27.18 105.231 26.49 104.891 25.95C104.551 25.41 103.911 25.14 102.971 25.14C102.371 25.14 101.791 25.25 101.231 25.47C100.691 25.67 100.251 25.9 99.9108 26.16V32.97H101.111V36H93.5808ZM120.275 36.6C119.215 36.6 118.305 36.4 117.545 36C116.785 35.58 116.205 34.96 115.805 34.14C115.405 33.3 115.205 32.25 115.205 30.99V25.41H112.715V22.38H115.205V19.95L118.865 18.78V22.38H122.465V25.41H118.865V30.15C118.865 31.23 119.025 32.06 119.345 32.64C119.685 33.2 120.185 33.48 120.845 33.48C121.385 33.48 122.035 33.28 122.795 32.88L123.515 35.7C123.035 35.94 122.515 36.15 121.955 36.33C121.395 36.51 120.835 36.6 120.275 36.6ZM133.026 24.87C132.706 24.77 132.356 24.69 131.976 24.63C131.616 24.57 131.266 24.54 130.926 24.54C130.246 24.54 129.646 24.66 129.126 24.9C128.606 25.12 128.346 25.49 128.346 26.01C128.346 26.41 128.466 26.74 128.706 27C128.966 27.26 129.556 27.46 130.476 27.6L132.486 27.9C134.006 28.12 135.126 28.56 135.846 29.22C136.566 29.88 136.926 30.8 136.926 31.98C136.926 33.06 136.636 33.95 136.056 34.65C135.476 35.33 134.726 35.83 133.806 36.15C132.886 36.47 131.906 36.63 130.866 36.63C129.686 36.63 128.656 36.51 127.776 36.27C126.916 36.05 126.106 35.72 125.346 35.28L124.806 32.1L127.926 31.62L128.196 33.09C128.616 33.27 129.026 33.41 129.426 33.51C129.826 33.59 130.236 33.63 130.656 33.63C131.456 33.63 132.136 33.5 132.696 33.24C133.276 32.98 133.566 32.59 133.566 32.07C133.566 31.73 133.436 31.43 133.176 31.17C132.916 30.89 132.346 30.7 131.466 30.6L129.636 30.3C128.196 30.06 127.056 29.61 126.216 28.95C125.396 28.27 124.986 27.35 124.986 26.19C124.986 25.31 125.226 24.54 125.706 23.88C126.186 23.22 126.866 22.71 127.746 22.35C128.626 21.99 129.666 21.81 130.866 21.81C131.786 21.81 132.656 21.92 133.476 22.14C134.296 22.36 135.056 22.73 135.756 23.25L136.296 26.16L133.506 26.64L133.026 24.87Z" fill="black"/>
</svg>
